<?xml version="1.0" standalone="no"?>
<!DOCTYPE svg PUBLIC "-//W3C//DTD SVG 20010904//EN"
 "http://www.w3.org/TR/2001/REC-SVG-20010904/DTD/svg10.dtd">
<svg version="1.0" xmlns="http://www.w3.org/2000/svg"
 width="500.000000pt" height="500.000000pt" viewBox="0 0 500.000000 500.000000"
 preserveAspectRatio="xMidYMid meet">

<g transform="translate(0.000000,500.000000) scale(0.100000,-0.100000)"
fill="#1e3a5f" stroke="none">
<path d="M2310 4214 c-186 -24 -448 -106 -580 -181 -176 -101 -263 -165 -388
-287 -280 -271 -459 -623 -513 -1006 -15 -111 -15 -364 0 -465 58 -373 212
-683 475 -954 245 -251 529 -408 876 -482 90 -20 135 -23 320 -23 187 0 229 3
320 22 264 58 496 165 705 326 146 113 322 312 419 473 254 424 310 946 152
1417 -91 271 -231 492 -439 692 -189 183 -387 306 -618 385 -186 63 -285 79
-504 84 -104 2 -206 1 -225 -1z m480 -124 c187 -38 354 -103 528 -205 111 -65
279 -210 362 -311 30 -37 60 -72 66 -78 28 -30 116 -172 163 -263 103 -204
158 -421 168 -663 13 -355 -77 -665 -281 -965 -108 -159 -345 -384 -491 -466
-181 -101 -334 -160 -526 -200 -149 -31 -410 -32 -558 0 -271 58 -494 161
-700 325 -102 82 -255 248 -329 360 -168 252 -256 519 -269 817 -18 424 122
817 405 1143 181 208 443 378 715 465 84 27 158 43 302 65 75 11 343 -3 445
-24z"/>
<path d="M2340 3934 c-14 -2 -56 -9 -95 -15 -95 -15 -255 -69 -351 -117 -192
-97 -399 -270 -522 -436 -98 -134 -184 -312 -221 -459 -22 -85 -15 -119 31
-161 31 -29 32 -29 132 -23 91 5 346 50 435 77 19 5 36 9 37 7 1 -1 -10 -36
-24 -77 -25 -69 -27 -87 -27 -238 0 -140 -2 -161 -15 -156 -144 58 -456 125
-514 110 -37 -9 -83 -58 -88 -94 -6 -45 19 -176 57 -288 38 -114 96 -236 161
-336 121 -188 348 -389 557 -494 89 -45 265 -104 331 -111 90 -9 146 38 146
125 0 87 -62 404 -96 486 -6 17 -4 18 22 12 131 -34 277 -34 408 0 25 6 28 4
23 -10 -33 -86 -97 -410 -97 -492 0 -46 33 -99 73 -115 92 -38 416 85 617 235
286 213 480 521 551 872 19 92 19 104 5 137 -23 55 -68 79 -136 73 -107 -10
-286 -50 -400 -89 -41 -14 -75 -25 -76 -24 -1 1 3 38 7 82 12 116 2 212 -37
333 -19 59 -18 62 19 51 87 -26 343 -71 433 -76 l100 -6 36 32 c19 17 38 44
41 60 8 40 -24 160 -73 273 -182 422 -562 735 -1011 834 -71 15 -380 28 -439
18z m330 -108 c225 -32 420 -112 598 -246 176 -133 304 -289 401 -491 52 -107
100 -253 88 -265 -18 -18 -373 44 -526 93 -78 25 -88 31 -165 108 -44 44 -102
95 -127 112 -132 91 -308 139 -474 130 -215 -12 -380 -88 -535 -247 -75 -77
-78 -79 -176 -109 -136 -41 -400 -91 -486 -91 -35 0 -35 7 -3 108 63 198 172
376 323 528 287 288 690 426 1082 370z m48 -700 c125 -46 206 -102 292 -202
102 -119 155 -265 154 -429 0 -118 -19 -198 -72 -305 -49 -101 -177 -231 -279
-283 -263 -136 -573 -89 -778 117 -178 180 -240 415 -174 661 53 194 241 385
444 448 77 24 91 26 220 22 100 -2 132 -7 193 -29z m-1302 -811 c211 -46 361
-106 385 -154 60 -118 167 -242 266 -308 29 -20 61 -51 72 -69 46 -78 121
-391 121 -505 l0 -61 -32 7 c-125 27 -318 111 -433 188 -303 204 -519 536
-570 881 l-7 46 41 0 c23 0 93 -11 157 -25z m2364 3 c0 -13 -9 -59 -19 -103
-93 -386 -340 -702 -687 -879 -79 -40 -240 -100 -296 -110 l-38 -7 0 54 c0 81
42 293 82 412 33 96 54 129 100 160 107 71 195 165 254 272 36 65 49 78 98
101 110 52 366 119 459 121 42 1 47 -1 47 -21z"/>
<path d="M2072 2478 l3 -322 73 -1 72 -1 0 123 0 123 110 0 110 0 0 60 0 60
-110 0 -110 0 0 75 0 75 124 0 124 0 39 48 c21 26 45 55 52 65 13 16 0 17
-238 17 l-251 0 2 -322z"/>
<path d="M2615 2752 c-22 -26 -55 -66 -73 -89 l-32 -41 2 -234 3 -233 73 -1
72 0 0 123 0 123 130 0 130 0 0 60 0 59 -127 3 -128 3 -3 73 -3 72 146 0 145
0 0 65 0 65 -147 0 -148 0 -40 -48z"/>
</g>
</svg>
